# xmcd
#
# Track frame offsets:
#	182
#	13120
#	25085
#	38232
#	53090
#	66887
#	79495
#	94295
#	107590
#	120815
#	135482
#	150015
#	161967
#	175462
#	188160
#	199385
#
# Disc length: 2832 seconds
#
# Revision: 0
# Processed by: cddbd v1.5.1PL0 Copyright (c) Steve Scherf et al.
# Submitted via: dBpowerAMP V4.0
#
DISCID=cf0b0e10
DTITLE=Big Joe Turner - The Blues Singer
DYEAR=1900
DGENRE=Blues
TTITLE0=Roll 'em Pete
TTITLE1=Goin' away blues
TTITLE2=Cherry red
TTITLE3=Lovin' mama blues
TTITLE4=Baby look at you
TTITLE5=Low down dirty shame
TTITLE6=I can't give you anything but love
TTITLE7=Piney brown blues
TTITLE8=Wee baby blues
TTITLE9=Last goodbye blues
TTITLE10=Rocks in my bed
TTITLE11=Blues on central avenue
TTITLE12=Goin' to Chicago blues
TTITLE13=Sun risin' blues
TTITLE14=Blues in the night
TTITLE15=Cry baby blues
EXTD=
EXTT0=
EXTT1=
EXTT2=
EXTT3=
EXTT4=
EXTT5=
EXTT6=
EXTT7=
EXTT8=
EXTT9=
EXTT10=
EXTT11=
EXTT12=
EXTT13=
EXTT14=
EXTT15=
PLAYORDER=
